<svg xmlns="http://www.w3.org/2000/svg" viewBox="0 0 100 100">
  <defs>
    <style>
      .dark { fill: #0A0A0A; }
      .lime { fill: #A3FF3F; }
    </style>
  </defs>
  
  <!-- Background -->
  <rect width="100" height="100" class="dark" rx="20"/>
  
  <!-- JB Monogram -->
  <g>
    <!-- Letter J -->
    <path class="lime" d="M 25 25 L 35 25 L 35 55 Q 35 65 28 65 Q 20 65 20 57 L 28 57 Q 28 60 30 60 Q 32 60 32 55 L 32 28 L 25 28 Z"/>
    
    <!-- Letter B -->
    <path class="lime" d="M 50 25 L 65 25 Q 75 25 75 35 Q 75 40 70 42 Q 75 44 75 50 Q 75 60 65 60 L 50 60 Z M 53 28 L 53 40 L 64 40 Q 72 40 72 35 Q 72 28 64 28 Z M 53 43 L 53 57 L 65 57 Q 72 57 72 50 Q 72 43 65 43 Z"/>
  </g>
  
  <!-- Accent line -->
  <rect x="20" y="75" width="60" height="5" class="lime" rx="2"/>
</svg>
